PathFileType	4	(X/Y/Z)	Walk6.trc
DataRate	CameraRate	NumFrames	NumMarkers	Units	OrigDataRate	OrigDataStartFrame	OrigNumFrames
200.000000	200.000000	4	58	mm	200.000000	555	716
Frame#	Times		RCAR		LMT1		RFHD		LTB2		LFHD		LTB3		RUA1		LMT5		LTB4		RElbow		RASI		RFA1		LACR1		LToe		RBHD		LUA1		LASI		RACR1		LTH1		LTH3		RTH3		LCAR		RWRU		LTH2		RLFC		C7		RBack		STRN		LElbow		RTH4		RTH2		CLAV		LTH4		RMT1		LLFC		RWRR		LWRR		RTB4		RTB3		LFA1		LPSI		RPSI		RTB2		RToe		LTB1		RTB1		LWRU		RTH1		LElbowM		LMMAL		LBHD		T10		RLMAL		RMMAL		RCAL		RMT5		LCAL		RElbowM
			X1	Y1	Z1	X2	Y2	Z2	X3	Y3	Z3	X4	Y4	Z4	X5	Y5	Z5	X6	Y6	Z6	X7	Y7	Z7	X8	Y8	Z8	X9	Y9	Z9	X10	Y10	Z10	X11	Y11	Z11	X12	Y12	Z12	X13	Y13	Z13	X14	Y14	Z14	X15	Y15	Z15	X16	Y16	Z16	X17	Y17	Z17	X18	Y18	Z18	X19	Y19	Z19	X20	Y20	Z20	X21	Y21	Z21	X22	Y22	Z22	X23	Y23	Z23	X24	Y24	Z24	X25	Y25	Z25	X26	Y26	Z26	X27	Y27	Z27	X28	Y28	Z28	X29	Y29	Z29	X30	Y30	Z30	X31	Y31	Z31	X32	Y32	Z32	X33	Y33	Z33	X34	Y34	Z34	X35	Y35	Z35	X36	Y36	Z36	X37	Y37	Z37	X38	Y38	Z38	X39	Y39	Z39	X40	Y40	Z40	X41	Y41	Z41	X42	Y42	Z42	X43	Y43	Z43	X44	Y44	Z44	X45	Y45	Z45	X46	Y46	Z46	X47	Y47	Z47	X48	Y48	Z48	X49	Y49	Z49	X50	Y50	Z50	X51	Y51	Z51	X52	Y52	Z52	X53	Y53	Z53	X54	Y54	Z54	X55	Y55	Z55	X56	Y56	Z56	X57	Y57	Z57	X58	Y58	Z58

555	2.775	376.79	775.44	345.43	188.86	78.251	-19.975	445.69	1603.3	66.032	309.43	307.09	-103.78	417.05	1609.2	-24.535	256	233.52	-55.403	322.87	1190.1	280.01	158.96	96.968	-88.051	326.37	282.41	-50.443	276.18	1069.6	308.35	451.4	990.7	177.98	285.54	923.81	328.03	325.95	1386.3	-125.07	225.18	32.133	-57.538	305.01	1543.3	122.31	332.16	1206	-220.79	441.06	963.26	-113.59	327.82	1374	187.34	364.88	746.11	-177.46	411.2	587.13	-135.39	380.11	587.62	205.37	442.59	801.84	-233.32	310.89	816.63	338.18	443.39	687.41	-146.25	376.35	500.5	179.44	249.75	1418.1	40.94	204.01	1315.6	141.19	455.61	1247.5	31.842	307.94	1079.2	-249.9	380.9	669.99	226.34	437.39	675.22	208.26	389.6	1348.7	27.576	387.92	668.25	-150.83	467.42	34.215	59.484	436.52	474.66	-113.63	365.1	825	292.64	415.05	848.53	-198.69	404.4	258.74	96.304	395.95	173.77	98.048	336.46	941.66	-258.39	200.53	960.47	-6.5521	201.93	971.75	82.447	384.53	260.6	156.06	535.53	29.849	87.054	398.66	331.32	-49.782	411.93	345.81	101.33	379.52	832.72	-259.62	385.08	754.28	251.12	265.74	1051.7	-181.67	162.02	180.93	4.0611	269.35	1545.2	-14.744	187.78	1149.6	24.545	352.46	60.836	121.05	365.13	69.956	38.706	289.26	27.572	86.042	437.9	26.054	137.5	85.968	223.52	-34.16	263.35	1037.9	214.96
556	2.78	388.21	777.7	346.8	207.95	76.604	-20.108	451.49	1603.6	66.065	322.65	306.73	-103.19	422.84	1609.5	-24.485	270.52	232.32	-54.745	329.49	1191.1	280.48	177.45	94.914	-88.082	340.05	282.44	-49.818	283.87	1070.4	309.3	456.68	990.58	178.09	294.86	924.69	329.23	331.22	1386.5	-125.19	245.88	32.157	-57.86	310.8	1543.5	122.32	336.44	1205.9	-220.74	446.29	963.96	-113.49	333.64	1374.7	187.27	370.61	746.51	-177.04	420.03	588.4	-135.13	382.8	587.51	205.19	442.83	800.27	-233.98	321.58	817.72	339.29	450.44	689.2	-146.65	378.01	500.44	179.39	255.41	1418.5	40.96	209.71	1316.3	141.48	461.13	1247.7	31.249	311.42	1079.3	-249.67	384.24	669.81	226.25	440.74	674.64	208.09	395.21	1349.1	27.395	395.23	669.08	-150.52	467.43	34.196	59.479	447.06	476.34	-113.29	375.75	826.81	293.78	415.98	847.39	-199.29	404.86	258.67	96.38	396.19	173.71	98.075	338.5	941.59	-258.56	205.71	961.12	-5.8545	207.29	972.24	83.118	384.92	260.55	156.12	535.52	29.871	87.07	411.42	332.57	-49.2	412.62	345.72	101.44	380.3	832.3	-260.33	389.16	754	251.19	269.2	1052.1	-181.36	177.58	178.01	4.7673	275.11	1545.6	-14.732	193.21	1150	25.249	352.45	60.855	121	365.18	69.959	38.642	289.27	27.639	85.969	437.9	26.05	137.49	100.12	218.49	-33.438	270.77	1038.3	216.05
557	2.785	399.6	779.97	348.15	227.25	74.881	-20.132	457.28	1603.8	66.071	335.91	306.23	-102.58	428.62	1609.8	-24.464	285.17	230.96	-54.063	336.09	1192	280.95	196.21	92.697	-88.047	353.77	282.37	-49.17	291.55	1071.2	310.23	461.94	990.45	178.2	304.16	925.56	330.41	336.48	1386.6	-125.31	266.82	32.18	-57.997	316.59	1543.7	122.3	340.71	1205.9	-220.68	451.57	964.62	-113.35	339.48	1375.3	187.19	376.37	746.83	-176.66	428.81	589.65	-134.85	385.51	587.39	204.99	443.07	798.73	-234.72	332.26	818.81	340.35	457.47	690.92	-147.04	379.65	500.37	179.34	261.06	1418.9	40.984	215.43	1316.9	141.78	466.66	1247.9	30.644	314.86	1079.4	-249.44	387.62	669.61	226.13	444.11	674.05	207.85	400.81	1349.3	27.204	402.53	669.87	-150.22	467.45	34.178	59.479	457.51	478	-112.93	386.4	828.63	294.9	416.92	846.25	-199.93	405.32	258.59	96.507	396.43	173.66	98.14	340.51	941.5	-258.74	210.89	961.71	-5.2277	212.64	972.67	83.718	385.25	260.51	156.22	535.51	29.889	87.087	424.16	333.78	-48.598	413.33	345.62	101.6	381.07	831.88	-261.05	393.28	753.69	251.25	272.66	1052.6	-181.04	193.31	174.88	5.4744	280.86	1545.9	-14.746	198.63	1150.4	25.963	352.45	60.875	120.95	365.24	69.963	38.576	289.28	27.709	85.894	437.9	26.047	137.48	114.5	213.09	-32.779	278.24	1038.8	217.12
558	2.79	410.97	782.25	349.46	246.75	73.098	-20.05	463.07	1603.9	66.052	349.22	305.6	-101.97	434.39	1610.1	-24.471	299.94	229.46	-53.362	342.67	1192.9	281.44	215.24	90.335	-87.948	367.52	282.21	-48.502	299.21	1071.9	311.15	467.18	990.31	178.32	313.47	926.4	331.55	341.73	1386.6	-125.43	287.97	32.207	-57.957	322.36	1543.8	122.26	344.95	1205.8	-220.61	456.9	965.23	-113.18	345.34	1375.9	187.1	382.17	747.09	-176.32	437.52	590.87	-134.57	388.24	587.27	204.77	443.3	797.22	-235.53	342.95	819.89	341.37	464.45	692.58	-147.41	381.27	500.31	179.31	266.71	1419.2	41.012	221.16	1317.4	142.08	472.17	1248.1	30.032	318.28	1079.5	-249.22	391.04	669.4	225.99	447.49	673.45	207.54	406.41	1349.5	27.003	409.82	670.62	-149.93	467.46	34.162	59.486	467.83	479.63	-112.54	397.05	830.47	296	417.88	845.11	-200.61	405.79	258.51	96.681	396.67	173.6	98.24	342.49	941.4	-258.94	216.07	962.22	-4.6747	217.98	973.04	84.245	385.54	260.46	156.34	535.51	29.903	87.107	436.87	334.95	-47.976	414.07	345.52	101.83	381.81	831.45	-261.79	397.46	753.37	251.28	276.11	1052.9	-180.71	209.23	171.55	6.1782	286.6	1546.2	-14.786	204.03	1150.8	26.683	352.45	60.895	120.9	365.3	69.969	38.511	289.29	27.782	85.819	437.9	26.043	137.47	129.13	207.35	-32.189	285.75	1039.1	218.17
